# xmcd CD database file
#
# Track frame offsets:
#	150
#	21770
#	39885
#	66827
#	86187
#	124760
#	157615
#
# Disc length: 4440 seconds
#
# Revision: 0
# Processed by: cddbd v1.5PL3 Copyright (c) Steve Scherf et al.
# Submitted via: CDex 1.50
#
DISCID=4b115607
DTITLE=倖田來未 - COME WITH ME
DYEAR=2003
DGENRE=JPop
TTITLE0=COME WITH ME - Original Mix
TTITLE1=real Emotion - English Ver. 
TTITLE2=1000の言葉 - English Ver.
TTITLE3=real Emotion - DJ MSK Remix
TTITLE4=1000の言葉 - DJ 19 Remix
TTITLE5=COME WITH ME - Instrumental
TTITLE6=data
EXTD=YEAR: 2003
EXTT0=
EXTT1=
EXTT2=
EXTT3=
EXTT4=
EXTT5=
EXTT6=
PLAYORDER=
